<svg xmlns="http://www.w3.org/2000/svg" width="162" height="36" viewBox="0 0 162 36">
    <g fill="#FFF" fill-rule="nonzero">
        <path d="M62.096 28.593V2.983h4.491v9.81a8.044 8.044 0 0 1 5.55-2.237c4.862 0 9.18 3.68 9.18 9.235s-4.327 9.235-9.18 9.235a8.063 8.063 0 0 1-5.767-2.418v1.985h-4.274zm14.73-8.802c0-3.101-2.214-5.266-5.118-5.266-2.827 0-5.004 2.05-5.114 5.05v.227c0 3.104 2.214 5.266 5.114 5.266 2.901 0 5.11-2.174 5.11-5.277h.007zM83.103 19.79c0-5.445 3.809-9.234 8.779-9.234 4.461 0 7.619 2.707 8.524 6.927v3.86H87.574c.399 2.633 2.504 4.003 5.405 4.003l6.166-2.279v4.004a11.864 11.864 0 0 1-6.457 1.948c-5.813.007-9.585-3.78-9.585-9.228zm4.427-1.874h8.708c-.438-2.422-2.106-3.607-4.354-3.607s-3.955 1.262-4.354 3.607zM102.211 19.79c0-5.445 3.81-9.234 8.778-9.234 4.464 0 7.62 2.707 8.527 6.927v3.86h-12.832c.399 2.633 2.502 4.003 5.403 4.003l6.168-2.279v4.004a11.876 11.876 0 0 1-6.457 1.948c-5.813.007-9.587-3.78-9.587-9.228zm4.427-1.874h8.707c-.435-2.418-2.103-3.607-4.353-3.607-2.25 0-3.955 1.262-4.354 3.607zM136.066 35.809v-8.982a8.164 8.164 0 0 1-5.55 2.199c-4.862 0-9.179-3.678-9.179-9.233 0-5.555 4.317-9.235 9.18-9.235a8.175 8.175 0 0 1 5.765 2.43V10.99h4.282V35.81h-4.498zm0-16.016v-.228c-.11-2.994-2.291-5.051-5.114-5.051-2.903 0-5.117 2.164-5.117 5.268 0 3.103 2.214 5.281 5.117 5.281s5.114-2.169 5.114-5.27zM142.707 19.784c0-5.555 4.534-9.232 9.623-9.232 5.09 0 9.624 3.677 9.624 9.232s-4.534 9.235-9.624 9.235c-5.089 0-9.623-3.68-9.623-9.235zm14.729 0c0-3.101-2.214-5.266-5.115-5.266-2.9 0-5.114 2.165-5.114 5.266s2.211 5.28 5.114 5.28 5.115-2.177 5.115-5.28zM43.85 21.632V10.989h4.498v10.39c0 2.165 1.054 3.677 3.412 3.677 2.392 0 3.437-1.512 3.437-3.677v-10.39h4.5v10.643c0 4.4-2.75 7.394-7.944 7.394-5.195 0-7.903-2.994-7.903-7.394zM26.846 0h.142a8.196 8.196 0 0 1 6.164 2.948c1.58 1.903 2.142 4.268 1.663 7.027L32.7 22.19c-.74 4.484-4.017 8.14-8.411 9.385-1.082.305-2.201.459-3.325.456a11.98 11.98 0 0 1-7.979-3.051c-.635.123-1.282.185-1.93.185a9.82 9.82 0 0 1-6.323-2.306c-1.67-1.406-2.819-3.418-3.32-5.792-.328-1.55-.573-3.117-.812-4.632-.114-.732-.229-1.46-.353-2.188v-.045c-.263-1.547-.59-3.473.688-5.403a5.93 5.93 0 0 1 8.808-1.192c1.59 1.382 1.918 3.289 2.158 4.68l.724 4.13c.083.473.163.947.246 1.419a175.176 175.176 0 0 0 .474 2.705c.11.783.29 1.555.54 2.305.125.33.272.65.443.96a5.137 5.137 0 0 0 2.062-3.277l2.216-12.675c.296-1.686.752-3.459 2.094-5.013A8.105 8.105 0 0 1 26.846 0zm-5.88 27.72c.72 0 1.435-.1 2.126-.296a7.605 7.605 0 0 0 3.488-2.133 7.474 7.474 0 0 0 1.833-3.835l2.115-12.212c.344-1.976-.252-2.962-.731-3.543a3.88 3.88 0 0 0-2.873-1.372h-.076a3.75 3.75 0 0 0-2.846 1.322c-.63.731-.887 1.638-1.116 2.962l-2.213 12.654a9.412 9.412 0 0 1-3.224 5.592 7.647 7.647 0 0 0 3.517.861zM4.316 12.197c.23 1.462 1.046 6.55 1.348 7.99.211 1 .708 2.4 1.877 3.384.698.587 1.533.99 2.429 1.171-.053-.125-.103-.25-.151-.378a16.907 16.907 0 0 1-.754-3.083 30.245 30.245 0 0 0-.085-.483c-.135-.747-.273-1.49-.392-2.235a46.535 46.535 0 0 0-.243-1.404l-.932-5.438a1.566 1.566 0 0 0-1.682-1.262 1.562 1.562 0 0 0-1.414 1.738z"/>
    </g>
</svg>
